<?xml version="1.0" encoding="utf-8"?>
<!-- Generator: Adobe Illustrator 16.0.0, SVG Export Plug-In . SVG Version: 6.00 Build 0)  -->
<!DOCTYPE svg PUBLIC "-//W3C//DTD SVG 1.1//EN" "http://www.w3.org/Graphics/SVG/1.1/DTD/svg11.dtd">
<svg version="1.1" id="Layer_1" xmlns="http://www.w3.org/2000/svg" xmlns:xlink="http://www.w3.org/1999/xlink" x="0px" y="0px"
	 width="40px" height="40px" viewBox="0 0 40 40" enable-background="new 0 0 40 40" xml:space="preserve">
<path fill-rule="evenodd" clip-rule="evenodd" d="M34.159,11.917h-1.492c-0.007-0.158-0.016-0.315-0.024-0.467
	l-0.271-5.198c-0.055-1.036-0.95-1.886-1.988-1.885H9.617C8.578,4.366,7.685,5.216,7.631,6.252L7.357,11.45
	c-0.008,0.151-0.016,0.309-0.022,0.467H5.842c-0.519,0-0.945,0.425-0.945,0.945v2.844c0,0.26,0.052,0.678,0.115,0.929l0.242,0.959
	c0.063,0.253,0.328,0.459,0.588,0.459h1.416v-0.003v11.801c0,1.037,0.85,1.888,1.888,1.888h0.477L9.617,31.74V34.1
	c0,0.259,0.212,0.472,0.471,0.472h2.833c0.26,0,0.471-0.213,0.471-0.472V31.74l-0.007-0.001h13.222L26.6,31.74V34.1
	c0,0.259,0.213,0.472,0.471,0.472h2.84c0.261,0,0.473-0.213,0.473-0.472V31.74l-0.006-0.001h0.478c1.039,0,1.888-0.851,1.888-1.888
	V18.054h1.415c0.261,0,0.524-0.206,0.589-0.459l0.24-0.959c0.063-0.251,0.115-0.669,0.115-0.929v-2.844
	C35.102,12.342,34.677,11.917,34.159,11.917 M11.505,6.255c0-0.26,0.214-0.473,0.473-0.473h16.045c0.261,0,0.473,0.212,0.473,0.473
	v0.944c0,0.259-0.212,0.472-0.473,0.472H11.978c-0.259,0-0.473-0.213-0.473-0.472V6.255z M15.279,28.434
	c0,0.26-0.211,0.473-0.47,0.473h-3.777c-0.259,0-0.512-0.208-0.564-0.463l-0.287-1.434c-0.049-0.256,0.12-0.464,0.38-0.464h4.249
	c0.259,0,0.47,0.212,0.47,0.473V28.434z M29.818,27.01l-0.287,1.434c-0.05,0.255-0.304,0.463-0.564,0.463h-3.777
	c-0.258,0-0.471-0.213-0.471-0.473v-1.415c0-0.261,0.213-0.473,0.471-0.473h4.25C29.699,26.546,29.87,26.754,29.818,27.01z
	 M30.854,21.884c0,0.886-0.939,2.359-10.854,2.359c-9.916,0-10.854-1.474-10.854-2.359V10.031c0-0.52,0.425-0.945,0.943-0.945H29.91
	c0.521,0,0.944,0.425,0.944,0.945V21.884z"/>
</svg>
