<?xml version="1.0" encoding="UTF-8" standalone="no"?><!DOCTYPE svg PUBLIC "-//W3C//DTD SVG 1.1//EN" "http://www.w3.org/Graphics/SVG/1.1/DTD/svg11.dtd"><svg width="100%" height="100%" viewBox="0 0 40 40" version="1.1" xmlns="http://www.w3.org/2000/svg" xmlns:xlink="http://www.w3.org/1999/xlink" xml:space="preserve" xmlns:serif="http://www.serif.com/" style="fill-rule:evenodd;clip-rule:evenodd;stroke-linejoin:round;stroke-miterlimit:2;"><rect x="0" y="0" width="40" height="40" style="fill:#76d13a;"/><path d="M32.902,6.576l-4.842,0l-0.445,0.445l-0.019,26.408l0.857,0l-0,-7.439l4.024,0l0,7.439l0.841,0l0.018,-26.408l-0.434,-0.445Zm-4.437,2.304l4.033,-0l-0.009,8.258l-4.036,0l0.012,-8.258Z" style="fill:#111;"/><path d="M24.663,16.378l-1.132,0l-0.009,-0.363l-0.213,-3.951c-0.03,-0.768 -0.708,-1.415 -1.507,-1.415l-15.729,-0.021c-0.788,-0 -1.466,0.647 -1.507,1.424l-0.211,3.934l-0.02,0.373l-1.132,0l-0.718,0.698l-0,2.162l0.09,0.707l0.181,0.707l0.447,0.355l1.071,0l-0,8.945c-0.011,0.777 0.636,1.434 1.424,1.434l0.355,0l-0,1.788l0.355,0.355l2.151,0l0.354,-0.355l-0,-1.788l-0.01,0l10.029,0.009l-0.012,0l0,1.791l0.367,0.363l2.153,-0l0.353,-0.363l0,-1.791l0.364,0c0.777,0 1.425,-0.647 1.425,-1.434l0.018,-8.934l1.063,-0l0.444,-0.354l0.182,-0.718l0.093,-0.717l-0,-2.142l-0.719,-0.699Zm-17.174,-4.326l0.373,-0.353l12.153,0.009l0.363,0.356l-0,0.727l-0.363,0.343l-12.153,-0.009l-0.373,-0.363l-0,-0.71Zm2.861,16.808l-0.344,0.366l-2.891,-0l-0.425,-0.354l-0.213,-1.081l0.294,-0.366l3.235,-0l0.344,0.366l-0,1.069Zm11.027,-1.06l-0.24,1.072l-0.415,0.363l-2.861,-0l-0.364,-0.363l0,-1.072l0.364,-0.352l3.213,-0l0.303,0.352Zm0.78,-3.882c-0,0.657 -0.708,1.778 -8.229,1.769c-7.52,0 -8.219,-1.131 -8.219,-1.778l-0,-8.997l0.718,-0.706l15.022,0.01l0.717,0.709l-0.009,8.993Z" style="fill:#111;"/></svg>