<?xml version="1.0" encoding="utf-8"?>
<!-- Generator: Adobe Illustrator 16.0.0, SVG Export Plug-In . SVG Version: 6.00 Build 0)  -->
<!DOCTYPE svg PUBLIC "-//W3C//DTD SVG 1.1//EN" "http://www.w3.org/Graphics/SVG/1.1/DTD/svg11.dtd">
<svg version="1.1" id="Layer_1" xmlns="http://www.w3.org/2000/svg" xmlns:xlink="http://www.w3.org/1999/xlink" x="0px" y="0px"
	 width="40px" height="40px" viewBox="0 0 40 40" enable-background="new 0 0 40 40" xml:space="preserve">
<polygon fill-rule="evenodd" clip-rule="evenodd" points="8.799,34.575 13.249,34.575 13.249,36.44 18.381,36.44 18.381,35.759 
	21.244,35.759 21.244,36.44 26.299,36.44 26.299,34.575 30.827,34.575 30.827,38.559 8.799,38.559 "/>
<g>
	<g>
		<g>
			<path fill-rule="evenodd" clip-rule="evenodd" d="M28.538,5.507l-0.302-0.336l-0.453-0.258L27.33,4.747l-0.53-0.17l-0.604-0.17
				l-0.677-0.17l-0.682-0.083l-0.755-0.087l-0.75-0.083L22.5,3.9l-0.828-0.088H20.84h-0.828h-0.833h-0.901L17.446,3.9l-0.755,0.083
				l-0.828,0.083l-0.755,0.087l-0.682,0.083l-0.677,0.17l-0.604,0.17l-0.526,0.17L12.09,4.913l-0.375,0.258l-0.38,0.336
				l-0.224,0.341L10.96,6.184v0.428l1.812,12.962l0.073,0.17l0.078,0.253l0.151,0.17l0.151,0.253l0.15,0.088l0.224,0.171
				l0.302,0.083h12.144l0.229-0.083l0.225-0.088l0.15-0.171l0.151-0.253l0.151-0.17l0.077-0.253v-0.17l1.884-12.962V6.271
				L28.84,5.848L28.538,5.507z M28.46,6.612l-1.812,12.879l-0.073,0.17l-0.077,0.17l-0.073,0.166l-0.078,0.087l-0.151,0.083
				l-0.073,0.088l-0.15,0.083H25.82H14.052h-0.15l-0.151-0.083l-0.151-0.088l-0.073-0.083l-0.151-0.087l-0.078-0.166l-0.072-0.17
				v-0.17l-1.89-12.879V6.271l0.151-0.253l0.151-0.258l0.302-0.253l0.38-0.17l0.453-0.166l0.525-0.17l0.604-0.171l0.604-0.17
				l0.677-0.083l0.755-0.17h0.754l0.833-0.083l0.828-0.088h0.828h0.833h0.828h0.832L22.5,4.324l0.755,0.083h0.755l0.755,0.17
				l0.677,0.083l0.604,0.17l0.604,0.171l0.53,0.17l0.453,0.166l0.376,0.17l0.229,0.253l0.224,0.258l0.078,0.253L28.46,6.612z"/>
			<path fill-rule="evenodd" clip-rule="evenodd" d="M34.117,19.067L30.646,4.489c-0.225-1.183-0.604-1.354-1.807-1.523
				c-6.111-1.101-12.149-1.018-18.182,0C9.523,3.219,9.222,3.477,8.998,4.577l-3.394,14.49c-0.151,0.594-0.229,1.271-0.078,1.947
				l3.32,13.05h22.028l3.242-13.05C34.269,20.339,34.269,19.662,34.117,19.067z M7.742,21.186l-0.073-0.253
				c-0.078-0.341-0.229-0.594-0.15-0.848L9.704,9.32l1.583,11.019c0,0.253,0.078,0.594,0.078,0.847H7.742z M12.875,32.964
				l1.129-10.254c0.073-0.336,0.375-0.507,0.677-0.507h10.187c0.375,0,0.604,0.171,0.677,0.507l1.285,10.254H12.875z M27.403,19.915
				l-0.073,0.253h-0.078l-0.073,0.253h-0.077l-0.15,0.259l-0.225,0.165v0.088l-0.302,0.082v0.088l-0.303,0.083h-0.077H13.75
				l-0.302-0.083l-0.073-0.088l-0.229-0.082l-0.073-0.088l-0.151-0.165h-0.078l-0.151-0.259l-0.151-0.253l-0.073-0.253l-0.078-0.253
				L10.507,6.695V6.612V6.184V6.102l0.224-0.424V5.595l0.302-0.424l0.453-0.341l0.453-0.253l0.531-0.253l0.604-0.171l0.599-0.17
				l0.681-0.171l0.755-0.083l0.755-0.087l0.755-0.083l0.828-0.083l0.833-0.088h0.828h0.905h0.828h0.832L22.5,3.477l0.832,0.083
				l0.828,0.083l0.755,0.087l0.677,0.083l0.682,0.171l0.604,0.17l0.604,0.171l0.526,0.253L28.46,4.83l0.38,0.341h0.072l0.225,0.424
				l0.078,0.083l0.15,0.506v0.087l-0.078,0.424l-1.806,12.966L27.403,19.915z M31.956,20.933l-0.072,0.253h-3.623
				c0-0.253,0-0.594,0.078-0.847L29.844,9.32l2.19,10.765C32.107,20.339,31.956,20.592,31.956,20.933z"/>
		</g>
	</g>
</g>
<path fill-rule="evenodd" clip-rule="evenodd" d="M24.639,22.456c0.301,0,0.53,0.254,0.604,0.595l1.207,10.254H13.327l0.979-10.254
	c0.073-0.341,0.375-0.595,0.604-0.595H24.639z"/>
</svg>
