<?xml version="1.0" encoding="utf-8"?>
<!-- Generator: Adobe Illustrator 16.0.0, SVG Export Plug-In . SVG Version: 6.00 Build 0)  -->
<!DOCTYPE svg PUBLIC "-//W3C//DTD SVG 1.1//EN" "http://www.w3.org/Graphics/SVG/1.1/DTD/svg11.dtd">
<svg version="1.1" id="Layer_1" xmlns="http://www.w3.org/2000/svg" xmlns:xlink="http://www.w3.org/1999/xlink" x="0px" y="0px"
	 width="1000px" height="1000px" viewBox="0 0 1000 1000" enable-background="new 0 0 1000 1000" xml:space="preserve">
<path fill="#FFFFFF" d="M862.482,576.475c0-151.483-57.666-359.131-112.461-413.955C690.431,102.935,562.521,100,500.001,100
	c-62.49,0-190.43,2.935-249.99,62.52c-54.824,54.824-112.495,262.471-112.495,413.955c0,73.506,0,198.545,74.976,198.545h50.01
	L200.007,900h125.016l24.971-124.98h299.99l25,124.98h125.039l-62.521-124.98h50.01C862.482,775.02,862.482,649.98,862.482,576.475
	L862.482,576.475z M325.021,724.961c-20.724,0-37.49-16.807-37.49-37.49c0-20.692,16.768-37.489,37.49-37.489
	c20.684,0,37.479,16.797,37.479,37.489C362.502,708.154,345.705,724.961,325.021,724.961z M637.502,687.471
	c0-20.692,16.768-37.489,37.48-37.489c20.723,0,37.52,16.797,37.52,37.489c0,20.685-16.797,37.49-37.52,37.49
	C654.27,724.961,637.502,708.154,637.502,687.471z M712.502,599.98H287.531c-75.039,0-75.039-70.938-75.039-94.619
	c0-75.099,14.551-155.195,37.52-224.122c18.711-56.23,50-124.98,249.99-124.98s231.221,68.75,250.021,124.98
	c22.938,68.926,37.489,149.023,37.489,224.122C787.512,529.043,787.512,599.98,712.502,599.98z"/>
<path fill="#FFFFFF" d="M500,863.281c94,0.966,374.913-34.396,350.005-185.102c-11.794-71.359-70.469,18.563-165.578,47.287
	c-69.233,20.91-299.619,20.91-368.854,0c-95.109-28.724-153.784-118.646-165.578-47.287C125.087,828.886,406,862.315,500,863.281z"
	/>
</svg>
