<?xml version="1.0" encoding="utf-8"?>
<!-- Generator: Adobe Illustrator 16.0.0, SVG Export Plug-In . SVG Version: 6.00 Build 0)  -->
<!DOCTYPE svg PUBLIC "-//W3C//DTD SVG 1.1//EN" "http://www.w3.org/Graphics/SVG/1.1/DTD/svg11.dtd">
<svg version="1.1" id="Layer_1" xmlns="http://www.w3.org/2000/svg" xmlns:xlink="http://www.w3.org/1999/xlink" x="0px" y="0px"
	 width="40px" height="40px" viewBox="0 0 40 40" enable-background="new 0 0 40 40" xml:space="preserve">
<polygon fill-rule="evenodd" clip-rule="evenodd" fill="#FFFFFF" points="16.844,32.013 16.181,36.005 23.819,36.012 23.156,32.013 
	"/>
<path fill-rule="evenodd" clip-rule="evenodd" fill="#FFFFFF" d="M28.005,25.009H11.995c-0.548,0-0.914-0.444-0.81-0.98
	l3.128-16.547c0.104-0.536,0.634-0.974,1.187-0.974H24.5c0.548,0,1.083,0.438,1.181,0.974l3.134,16.547
	C28.919,24.564,28.542,25.009,28.005,25.009 M27.495,29.007c-0.548,0-0.992-0.45-0.992-1.004c0-0.548,0.444-0.998,0.992-0.998
	c0.56,0,1.011,0.45,1.011,0.998C28.505,28.557,28.055,29.007,27.495,29.007 M24.5,29.007c-0.554,0-0.998-0.45-0.998-1.004
	c0-0.548,0.444-0.998,0.998-0.998c0.554,0,1.004,0.45,1.004,0.998C25.504,28.557,25.055,29.007,24.5,29.007 M15.5,29.007
	c-0.553,0-1.003-0.45-1.003-1.004c0-0.548,0.451-0.998,1.003-0.998c0.554,0,0.999,0.45,0.999,0.998
	C16.499,28.557,16.054,29.007,15.5,29.007 M12.505,29.007c-0.56,0-1.009-0.45-1.009-1.004c0-0.548,0.449-0.998,1.009-0.998
	c0.548,0,0.998,0.45,0.998,0.998C13.503,28.557,13.054,29.007,12.505,29.007 M31.505,9.179V8.175c0,0,0-2.276-2.623-3.031
	c-0.889-0.255-2.258-0.651-3.134-0.9C25.31,4.116,24.574,4,23.575,4h-7.15c-0.998,0-1.74,0.116-2.173,0.244
	c-0.882,0.249-2.245,0.645-3.133,0.9C8.495,5.899,8.495,8.175,8.495,8.175v1.004v21.082c0,0.407,0.341,0.748,0.749,0.748h2.751
	l0.419,2.508c0.049,0.273,0.304,0.492,0.59,0.492H15c0.274,0,0.53-0.219,0.578-0.492l0.42-2.508h8.003l0.414,2.508
	c0.055,0.273,0.31,0.492,0.59,0.492h1.997c0.274,0,0.536-0.219,0.578-0.492l0.425-2.508h2.745c0.414,0,0.755-0.341,0.755-0.748
	V9.179z"/>
</svg>
