<?xml version="1.0" encoding="utf-8"?>
<!-- Generator: Adobe Illustrator 16.0.0, SVG Export Plug-In . SVG Version: 6.00 Build 0)  -->
<!DOCTYPE svg PUBLIC "-//W3C//DTD SVG 1.1//EN" "http://www.w3.org/Graphics/SVG/1.1/DTD/svg11.dtd">
<svg version="1.1" id="Layer_1" xmlns="http://www.w3.org/2000/svg" xmlns:xlink="http://www.w3.org/1999/xlink" x="0px" y="0px"
	 width="40px" height="40px" viewBox="2230 2230 40 40" enable-background="new 2230 2230 40 40" xml:space="preserve">
<path fill="#111111" d="M2265.219,2252.626c0-6.354-2.419-15.064-4.717-17.364c-2.5-2.499-7.865-2.622-10.488-2.622
	c-2.622,0-7.988,0.123-10.486,2.622c-2.3,2.3-4.719,11.01-4.719,17.364c0,3.083,0,8.328,3.145,8.328h2.098l-2.621,5.242h5.244
	l1.047-5.242h12.584l1.048,5.242h5.246l-2.623-5.242h2.098C2265.219,2260.954,2265.219,2255.709,2265.219,2252.626
	 M2242.674,2258.854c-0.869,0-1.573-0.705-1.573-1.573c0-0.867,0.704-1.572,1.573-1.572c0.868,0,1.572,0.705,1.572,1.572
	C2244.247,2258.149,2243.542,2258.854,2242.674,2258.854z M2255.781,2257.281c0-0.867,0.704-1.572,1.572-1.572
	c0.869,0,1.574,0.705,1.574,1.572c0,0.868-0.705,1.573-1.574,1.573C2256.485,2258.854,2255.781,2258.149,2255.781,2257.281z
	 M2258.928,2253.611h-17.826c-3.147,0-3.147-2.975-3.147-3.969c0-3.15,0.61-6.51,1.574-9.401c0.785-2.359,2.097-5.243,10.486-5.243
	c8.388,0,9.699,2.884,10.488,5.243c0.962,2.891,1.572,6.251,1.572,9.401C2262.074,2250.637,2262.074,2253.611,2258.928,2253.611z"/>
</svg>
