<?xml version="1.0" encoding="UTF-8" standalone="no"?><!DOCTYPE svg PUBLIC "-//W3C//DTD SVG 1.1//EN" "http://www.w3.org/Graphics/SVG/1.1/DTD/svg11.dtd"><svg width="100%" height="100%" viewBox="0 0 256 256" version="1.1" xmlns="http://www.w3.org/2000/svg" xmlns:xlink="http://www.w3.org/1999/xlink" xml:space="preserve" xmlns:serif="http://www.serif.com/" style="fill-rule:evenodd;clip-rule:evenodd;stroke-linecap:round;stroke-linejoin:round;stroke-miterlimit:1.5;"><defs><style type="text/css">@import url(https://fonts.googleapis.com/css?family=Open+Sans:600,700,800);</style></defs><path d="M224,51.2c0,-10.597 -8.603,-19.2 -19.2,-19.2l-153.6,0c-10.597,0 -19.2,8.603 -19.2,19.2l-0,153.6c-0,10.597 8.603,19.2 19.2,19.2l153.6,0c10.597,0 19.2,-8.603 19.2,-19.2l0,-153.6Z" style="fill:#444;stroke:#000;stroke-width:4px;"/><path d="M53,68l150,0" style="fill:none;stroke:#fff;stroke-width:4px;stroke-linecap:square;"/><path d="M53,88l150,0" style="fill:none;stroke:#fff;stroke-width:2px;stroke-linecap:square;"/><path d="M53,108l150,0" style="fill:none;stroke:#fff;stroke-width:2px;stroke-linecap:square;"/><path d="M53,128l150,0" style="fill:none;stroke:#fff;stroke-width:2px;stroke-linecap:square;"/><path d="M53,148l150,0" style="fill:none;stroke:#fff;stroke-width:2px;stroke-linecap:square;"/><path d="M53,168l150,0" style="fill:none;stroke:#fff;stroke-width:2px;stroke-linecap:square;"/><path d="M53,188l150,0" style="fill:none;stroke:#fff;stroke-width:2px;stroke-linecap:square;"/><path d="M80.778,73.92c-0,-1.06 -0.861,-1.92 -1.92,-1.92l-23.938,0c-1.06,0 -1.92,0.86 -1.92,1.92l0,8.16c0,1.06 0.86,1.92 1.92,1.92l23.938,0c1.059,0 1.92,-0.86 1.92,-1.92l-0,-8.16Z" style="fill:#d42e12;"/><path d="M80.778,93.92c-0,-1.06 -0.861,-1.92 -1.92,-1.92l-23.938,0c-1.06,0 -1.92,0.86 -1.92,1.92l0,8.16c0,1.06 0.86,1.92 1.92,1.92l23.938,0c1.059,0 1.92,-0.86 1.92,-1.92l-0,-8.16Z" style="fill:#009645;"/><path d="M80.778,113.92c-0,-1.06 -0.861,-1.92 -1.92,-1.92l-23.938,0c-1.06,0 -1.92,0.86 -1.92,1.92l0,8.16c0,1.06 0.86,1.92 1.92,1.92l23.938,0c1.059,0 1.92,-0.86 1.92,-1.92l-0,-8.16Z" style="fill:#9900ab;"/><path d="M80.778,133.92c-0,-1.06 -0.861,-1.92 -1.92,-1.92l-23.938,-0c-1.06,-0 -1.92,0.86 -1.92,1.92l0,8.16c0,1.06 0.86,1.92 1.92,1.92l23.938,0c1.059,0 1.92,-0.86 1.92,-1.92l-0,-8.16Z" style="fill:#fa9e0d;"/><path d="M80.778,153.92c-0,-1.06 -0.861,-1.92 -1.92,-1.92l-23.938,-0c-1.06,-0 -1.92,0.86 -1.92,1.92l0,8.16c0,1.06 0.86,1.92 1.92,1.92l23.938,0c1.059,0 1.92,-0.86 1.92,-1.92l-0,-8.16Z" style="fill:#005ec4;"/><path d="M80.778,173.92c-0,-1.06 -0.861,-1.92 -1.92,-1.92l-23.938,-0c-1.06,-0 -1.92,0.86 -1.92,1.92l0,8.16c0,1.06 0.86,1.92 1.92,1.92l23.938,0c1.059,0 1.92,-0.86 1.92,-1.92l-0,-8.16Z" style="fill:#784008;"/><g><path d="M193.012,82.283l-5.989,0l0,-1.26l2.151,-2.173c0.637,-0.653 1.053,-1.105 1.248,-1.357c0.195,-0.252 0.336,-0.485 0.422,-0.7c0.086,-0.215 0.129,-0.438 0.129,-0.668c-0,-0.344 -0.095,-0.6 -0.285,-0.768c-0.189,-0.168 -0.442,-0.252 -0.758,-0.252c-0.332,0 -0.655,0.077 -0.967,0.229c-0.313,0.152 -0.639,0.369 -0.979,0.65l-0.984,-1.166c0.422,-0.359 0.771,-0.613 1.049,-0.761c0.277,-0.149 0.58,-0.263 0.908,-0.343c0.328,-0.08 0.695,-0.12 1.102,-0.12c0.535,-0 1.007,0.097 1.418,0.293c0.41,0.195 0.728,0.468 0.955,0.82c0.226,0.352 0.339,0.754 0.339,1.207c0,0.395 -0.069,0.765 -0.208,1.11c-0.138,0.346 -0.353,0.701 -0.644,1.064c-0.291,0.363 -0.804,0.881 -1.538,1.553l-1.102,1.037l0,0.082l3.733,-0l-0,1.523Z" style="fill:#fff;fill-rule:nonzero;"/><path d="M194.723,82.283l3.216,-7.031l-4.224,-0l-0,-1.523l6.146,-0l0,1.136l-3.24,7.418l-1.898,0Z" style="fill:#fff;fill-rule:nonzero;"/><path d="M192.678,95.633c-0,0.535 -0.162,0.99 -0.487,1.365c-0.324,0.375 -0.779,0.633 -1.365,0.773l0,0.036c0.692,0.086 1.215,0.296 1.57,0.63c0.356,0.334 0.534,0.784 0.534,1.35c-0,0.824 -0.299,1.466 -0.897,1.925c-0.597,0.459 -1.451,0.688 -2.56,0.688c-0.93,0 -1.754,-0.154 -2.473,-0.462l0,-1.542c0.332,0.168 0.697,0.305 1.096,0.411c0.398,0.105 0.793,0.158 1.183,0.158c0.598,-0 1.039,-0.102 1.325,-0.305c0.285,-0.203 0.427,-0.529 0.427,-0.978c0,-0.403 -0.164,-0.688 -0.492,-0.856c-0.328,-0.168 -0.851,-0.252 -1.57,-0.252l-0.651,0l0,-1.388l0.662,-0c0.665,-0 1.15,-0.087 1.457,-0.261c0.306,-0.174 0.459,-0.472 0.459,-0.894c0,-0.648 -0.406,-0.972 -1.218,-0.972c-0.282,-0 -0.568,0.046 -0.859,0.14c-0.291,0.094 -0.614,0.256 -0.969,0.487l-0.838,-1.248c0.781,-0.563 1.713,-0.844 2.795,-0.844c0.886,-0 1.587,0.179 2.1,0.539c0.514,0.359 0.771,0.859 0.771,1.5Z" style="fill:#fff;fill-rule:nonzero;"/><path d="M196.99,96.811c0.828,-0 1.488,0.232 1.978,0.697c0.49,0.465 0.735,1.101 0.735,1.91c0,0.957 -0.295,1.693 -0.885,2.209c-0.589,0.516 -1.433,0.773 -2.531,0.773c-0.953,0 -1.723,-0.154 -2.308,-0.463l-0,-1.564c0.308,0.164 0.667,0.298 1.078,0.401c0.41,0.104 0.798,0.156 1.166,0.156c1.105,-0 1.658,-0.453 1.658,-1.36c-0,-0.863 -0.572,-1.295 -1.717,-1.295c-0.207,0 -0.435,0.021 -0.685,0.062c-0.25,0.041 -0.454,0.085 -0.61,0.132l-0.721,-0.387l0.323,-4.365l4.646,-0l0,1.535l-3.058,-0l-0.159,1.682l0.205,-0.041c0.239,-0.055 0.534,-0.082 0.885,-0.082Z" style="fill:#fff;fill-rule:nonzero;"/><path d="M191.5,122.283l-1.811,0l0,-4.957l0.018,-0.814l0.029,-0.891c-0.3,0.301 -0.509,0.498 -0.627,0.592l-0.984,0.791l-0.873,-1.09l2.76,-2.197l1.488,-0l0,8.566Z" style="fill:#fff;fill-rule:nonzero;"/><path d="M193.814,118.645c0,-1.696 0.359,-2.958 1.076,-3.786c0.716,-0.828 1.79,-1.242 3.219,-1.242c0.489,0 0.871,0.029 1.149,0.088l-0,1.447c-0.348,-0.078 -0.692,-0.117 -1.031,-0.117c-0.622,0 -1.128,0.094 -1.521,0.281c-0.393,0.188 -0.686,0.465 -0.882,0.832c-0.195,0.368 -0.31,0.889 -0.345,1.565l0.076,-0c0.386,-0.664 1.006,-0.996 1.857,-0.996c0.766,-0 1.365,0.24 1.799,0.721c0.434,0.48 0.65,1.144 0.65,1.992c0,0.914 -0.257,1.637 -0.773,2.171c-0.516,0.533 -1.231,0.799 -2.145,0.799c-0.632,0 -1.184,-0.146 -1.655,-0.439c-0.471,-0.293 -0.834,-0.721 -1.09,-1.283c-0.256,-0.563 -0.384,-1.241 -0.384,-2.033Zm3.094,2.308c0.387,0 0.684,-0.13 0.891,-0.39c0.207,-0.259 0.31,-0.629 0.31,-1.11c0,-0.418 -0.096,-0.747 -0.29,-0.987c-0.193,-0.24 -0.485,-0.361 -0.876,-0.361c-0.367,0 -0.68,0.12 -0.94,0.358c-0.26,0.238 -0.39,0.516 -0.39,0.832c0,0.465 0.122,0.857 0.366,1.178c0.245,0.32 0.554,0.48 0.929,0.48Z" style="fill:#fff;fill-rule:nonzero;"/><path d="M192.678,135.633c-0,0.535 -0.162,0.99 -0.487,1.365c-0.324,0.375 -0.779,0.633 -1.365,0.773l0,0.036c0.692,0.086 1.215,0.296 1.57,0.63c0.356,0.334 0.534,0.784 0.534,1.35c-0,0.824 -0.299,1.466 -0.897,1.925c-0.597,0.459 -1.451,0.688 -2.56,0.688c-0.93,0 -1.754,-0.154 -2.473,-0.463l0,-1.541c0.332,0.168 0.697,0.305 1.096,0.411c0.398,0.105 0.793,0.158 1.183,0.158c0.598,-0 1.039,-0.102 1.325,-0.305c0.285,-0.203 0.427,-0.529 0.427,-0.978c0,-0.403 -0.164,-0.688 -0.492,-0.856c-0.328,-0.168 -0.851,-0.252 -1.57,-0.252l-0.651,0l0,-1.388l0.662,-0c0.665,-0 1.15,-0.087 1.457,-0.261c0.306,-0.174 0.459,-0.472 0.459,-0.894c0,-0.648 -0.406,-0.972 -1.218,-0.972c-0.282,-0 -0.568,0.046 -0.859,0.14c-0.291,0.094 -0.614,0.256 -0.969,0.487l-0.838,-1.248c0.781,-0.563 1.713,-0.844 2.795,-0.844c0.886,-0 1.587,0.179 2.1,0.539c0.514,0.359 0.771,0.859 0.771,1.5Z" style="fill:#fff;fill-rule:nonzero;"/><path d="M199.814,138c0,1.496 -0.245,2.604 -0.735,3.322c-0.49,0.719 -1.245,1.078 -2.265,1.078c-0.988,0 -1.733,-0.371 -2.235,-1.113c-0.502,-0.742 -0.753,-1.838 -0.753,-3.287c0,-1.512 0.244,-2.626 0.733,-3.343c0.488,-0.717 1.24,-1.075 2.255,-1.075c0.989,0 1.736,0.375 2.242,1.125c0.506,0.75 0.758,1.848 0.758,3.293Zm-4.189,-0c0,1.051 0.091,1.804 0.272,2.259c0.182,0.455 0.488,0.682 0.917,0.682c0.422,0 0.727,-0.23 0.915,-0.691c0.187,-0.461 0.281,-1.211 0.281,-2.25c-0,-1.051 -0.095,-1.806 -0.284,-2.265c-0.19,-0.459 -0.494,-0.688 -0.912,-0.688c-0.425,-0 -0.73,0.229 -0.914,0.688c-0.183,0.459 -0.275,1.214 -0.275,2.265Z" style="fill:#fff;fill-rule:nonzero;"/><path d="M192.678,155.633c-0,0.535 -0.162,0.99 -0.487,1.365c-0.324,0.375 -0.779,0.633 -1.365,0.773l0,0.036c0.692,0.086 1.215,0.296 1.57,0.63c0.356,0.334 0.534,0.784 0.534,1.35c-0,0.824 -0.299,1.466 -0.897,1.925c-0.597,0.459 -1.451,0.688 -2.56,0.688c-0.93,0 -1.754,-0.154 -2.473,-0.463l0,-1.541c0.332,0.168 0.697,0.305 1.096,0.411c0.398,0.105 0.793,0.158 1.183,0.158c0.598,-0 1.039,-0.102 1.325,-0.305c0.285,-0.203 0.427,-0.529 0.427,-0.978c0,-0.403 -0.164,-0.688 -0.492,-0.856c-0.328,-0.168 -0.851,-0.252 -1.57,-0.252l-0.651,0l0,-1.388l0.662,-0c0.665,-0 1.15,-0.087 1.457,-0.261c0.306,-0.174 0.459,-0.472 0.459,-0.894c0,-0.648 -0.406,-0.972 -1.218,-0.972c-0.282,-0 -0.568,0.046 -0.859,0.14c-0.291,0.094 -0.614,0.256 -0.969,0.487l-0.838,-1.248c0.781,-0.563 1.713,-0.844 2.795,-0.844c0.886,-0 1.587,0.179 2.1,0.539c0.514,0.359 0.771,0.859 0.771,1.5Z" style="fill:#fff;fill-rule:nonzero;"/><path d="M200.055,160.508l-1.032,-0l0,1.775l-1.769,0l-0,-1.775l-3.656,-0l-0,-1.26l3.756,-5.531l1.669,-0l0,5.385l1.032,-0l-0,1.406Zm-2.801,-1.406l-0,-1.454c-0,-0.242 0.01,-0.593 0.029,-1.054c0.02,-0.461 0.035,-0.729 0.047,-0.803l-0.047,0c-0.144,0.32 -0.318,0.633 -0.521,0.938l-1.571,2.373l2.063,-0Z" style="fill:#fff;fill-rule:nonzero;"/><path d="M192.678,175.633c-0,0.535 -0.162,0.99 -0.487,1.365c-0.324,0.375 -0.779,0.633 -1.365,0.773l0,0.036c0.692,0.086 1.215,0.296 1.57,0.63c0.356,0.334 0.534,0.784 0.534,1.35c-0,0.824 -0.299,1.466 -0.897,1.925c-0.597,0.459 -1.451,0.688 -2.56,0.688c-0.93,0 -1.754,-0.154 -2.473,-0.463l0,-1.541c0.332,0.168 0.697,0.305 1.096,0.411c0.398,0.105 0.793,0.158 1.183,0.158c0.598,-0 1.039,-0.102 1.325,-0.305c0.285,-0.203 0.427,-0.529 0.427,-0.978c0,-0.403 -0.164,-0.688 -0.492,-0.856c-0.328,-0.168 -0.851,-0.252 -1.57,-0.252l-0.651,0l0,-1.388l0.662,-0c0.665,-0 1.15,-0.087 1.457,-0.261c0.306,-0.174 0.459,-0.472 0.459,-0.894c0,-0.648 -0.406,-0.972 -1.218,-0.972c-0.282,-0 -0.568,0.046 -0.859,0.14c-0.291,0.094 -0.614,0.256 -0.969,0.487l-0.838,-1.248c0.781,-0.563 1.713,-0.844 2.795,-0.844c0.886,-0 1.587,0.179 2.1,0.539c0.514,0.359 0.771,0.859 0.771,1.5Z" style="fill:#fff;fill-rule:nonzero;"/><path d="M199.861,182.283l-5.988,0l0,-1.26l2.15,-2.173c0.637,-0.653 1.053,-1.105 1.248,-1.357c0.196,-0.252 0.336,-0.485 0.422,-0.7c0.086,-0.215 0.129,-0.438 0.129,-0.668c0,-0.344 -0.094,-0.6 -0.284,-0.768c-0.189,-0.168 -0.442,-0.252 -0.759,-0.252c-0.332,0 -0.654,0.077 -0.966,0.229c-0.313,0.152 -0.639,0.369 -0.979,0.65l-0.984,-1.166c0.421,-0.359 0.771,-0.613 1.048,-0.761c0.278,-0.149 0.581,-0.263 0.909,-0.343c0.328,-0.08 0.695,-0.12 1.101,-0.12c0.535,-0 1.008,0.097 1.418,0.293c0.41,0.195 0.729,0.468 0.955,0.82c0.227,0.352 0.34,0.754 0.34,1.207c0,0.395 -0.069,0.765 -0.208,1.11c-0.139,0.346 -0.353,0.701 -0.644,1.064c-0.291,0.363 -0.804,0.881 -1.539,1.553l-1.101,1.037l-0,0.082l3.732,-0l0,1.523Z" style="fill:#fff;fill-rule:nonzero;"/></g></svg>