<?xml version="1.0" encoding="UTF-8" standalone="no"?><!DOCTYPE svg PUBLIC "-//W3C//DTD SVG 1.1//EN" "http://www.w3.org/Graphics/SVG/1.1/DTD/svg11.dtd"><svg width="100%" height="100%" viewBox="0 0 256 256" version="1.1" xmlns="http://www.w3.org/2000/svg" xmlns:xlink="http://www.w3.org/1999/xlink" xml:space="preserve" xmlns:serif="http://www.serif.com/" style="fill-rule:evenodd;clip-rule:evenodd;stroke-linecap:round;stroke-linejoin:round;stroke-miterlimit:1.5;"><rect id="Artboard1-new" serif:id="Artboard1 new" x="0" y="0" width="256" height="256" style="fill:none;"/><g id="Inner-Fill" serif:id="Inner Fill"><path d="M32,64l64,-32l-0,160l-64,32l-0,-160Z" style="fill:#eee;stroke:#000;stroke-width:4px;"/><path d="M160,64l0,160l-64,-32l0,-160l64,32Z" style="fill:#ccc;stroke:#000;stroke-width:4px;"/><path d="M224,32l0,160l-64,32l0,-160l64,-32Z" style="fill:#eee;stroke:#000;stroke-width:4px;"/></g><g id="Lines"><g><path id="TEL" d="M86.394,52.003l9.606,6.004" style="fill:none;stroke:#784008;stroke-width:2px;stroke-linejoin:miter;stroke-miterlimit:4;"/><path id="DTL" d="M96,105.972c-3.654,1.827 -6.68,3.34 -8.057,4.029c-0.511,0.255 -1.002,0.272 -1.364,0.046c-0.455,-0.285 -1.093,-0.684 -1.549,-0.968c-0.362,-0.226 -0.565,-0.677 -0.565,-1.252l0,-24.112" style="fill:none;stroke:#005ec4;stroke-width:2px;stroke-linejoin:miter;stroke-miterlimit:4;"/><path id="CCL" d="M96,137.378c-0.536,-2.571 -0.819,-5.374 -0.819,-8.392c0,-3.018 0.283,-6.103 0.819,-9.211" style="fill:none;stroke:#fa9e0d;stroke-width:2px;stroke-linejoin:miter;stroke-miterlimit:4;"/><path id="EWL" d="M41.6,121.116l0,32.255c-0,0.575 0.203,1.026 0.565,1.252c0.456,0.285 1.093,0.683 1.549,0.968c0.362,0.226 0.852,0.209 1.364,-0.046c5.809,-2.905 41.487,-20.744 47.295,-23.648c0.512,-0.256 1.002,-0.272 1.364,-0.046c0.486,0.304 1.267,0.791 2.263,1.414" style="fill:none;stroke:#009645;stroke-width:2px;stroke-linejoin:miter;stroke-miterlimit:4;"/><path id="NSL" d="M96,54.735c-9.643,4.821 -18.436,9.218 -21.287,10.643c-0.532,0.267 -0.964,0.968 -0.964,1.567l-0,74.264" style="fill:none;stroke:#d42e12;stroke-width:2px;stroke-linejoin:miter;stroke-miterlimit:4;"/><path id="JEL" d="M80.838,146.707c-0,-0 -13.009,-8.131 -15.901,-9.938c-0.362,-0.227 -0.565,-0.677 -0.565,-1.252l0,-16.745" style="fill:none;stroke:#00a6b6;stroke-width:2px;stroke-linejoin:miter;stroke-miterlimit:4;"/><path id="JEL-Grey" d="M80.838,146.707c-0,-0 -13.009,-8.131 -15.901,-9.938c-0.362,-0.227 -0.565,-0.677 -0.565,-1.252l0,-16.745" style="fill:none;stroke:#ddd;stroke-width:1px;stroke-linejoin:miter;stroke-miterlimit:4;"/><path id="JWL" d="M53.656,145.981c-0,0 -3.066,1.533 -4.559,2.28c-0.512,0.256 -1.003,0.272 -1.364,0.046c-0.456,-0.284 -1.094,-0.683 -1.549,-0.968c-0.362,-0.226 -0.565,-0.676 -0.565,-1.252l-0,-26.98" style="fill:none;stroke:#00a6b6;stroke-width:2px;stroke-linejoin:miter;stroke-miterlimit:4;"/><path id="JSL" d="M72.795,105.067c-0,-0 -15.407,25.036 -18.574,30.182c-0.362,0.588 -0.565,1.242 -0.565,1.817l-0,32.274" style="fill:none;stroke:#00a6b6;stroke-width:2px;stroke-linejoin:miter;stroke-miterlimit:4;"/></g><g><path id="CRL" d="M214.4,109.405c-0,-0 -0.002,-11.807 -0.003,-15.491c0,-0.599 -0.432,-0.871 -0.964,-0.606c-6.761,3.353 -46.971,23.295 -53.158,26.364c-0.093,0.046 -0.184,0.084 -0.275,0.114" style="fill:none;stroke:#95d606;stroke-width:2px;stroke-linejoin:miter;stroke-miterlimit:4;"/><path id="CRLe" d="M174.884,83.04c-0,0 20.891,13.142 24.604,15.478c0.36,0.226 0.847,0.211 1.355,-0.041c0.663,-0.329 1.501,-0.745 1.501,-0.745" style="fill:none;stroke:#95d606;stroke-width:2px;stroke-linejoin:miter;stroke-miterlimit:4;"/><path id="CRLe1" serif:id="CRLe" d="M174.884,83.04c-0,0 20.891,13.142 24.604,15.478c0.36,0.226 0.847,0.211 1.355,-0.041c0.663,-0.329 1.501,-0.745 1.501,-0.745" style="fill:none;stroke:#ddd;stroke-width:0.6px;stroke-linejoin:miter;stroke-miterlimit:4;"/><path id="TEL1" serif:id="TEL" d="M160,198.178c1.822,-0.904 3.248,-1.611 4.076,-2.022c0.512,-0.254 1.003,-0.726 1.365,-1.313c4.665,-7.568 36.635,-59.434 36.635,-59.434" style="fill:none;stroke:#784008;stroke-width:2px;stroke-linejoin:miter;stroke-miterlimit:4;"/><path id="DTL1" serif:id="DTL" d="M202.612,134.54c0,0 0.649,-1.03 1.155,-1.832c0.375,-0.595 0.587,-1.262 0.587,-1.849l-0,-9.233" style="fill:none;stroke:#005ec4;stroke-width:2px;stroke-linejoin:miter;stroke-miterlimit:4;"/><path id="DTL2" serif:id="DTL" d="M204.354,121.626l-0,-16.703c-0,-0.599 -0.432,-0.87 -0.965,-0.606c-4.011,1.989 -19.336,9.59 -23.018,11.416c-0.512,0.254 -1.002,0.726 -1.364,1.312c-2.207,3.578 -10.545,17.094 -19.007,30.81" style="fill:none;stroke:#005ec4;stroke-width:2px;stroke-linejoin:miter;stroke-miterlimit:4;"/><path id="CCL-PMN" d="M156.8,190.415c0,-0 0.439,-0.218 1.607,-0.797c1.169,-0.58 3.367,-4.846 4.078,-6.242" style="fill:none;stroke:#ddd;stroke-width:2px;stroke-linejoin:miter;stroke-miterlimit:4;"/><path id="CCL1" serif:id="CCL" d="M160,130.081c6.32,4.419 10.195,12.67 10.195,23.852c0,11.187 -3.878,23.287 -10.203,33.979" style="fill:none;stroke:#fa9e0d;stroke-width:2px;stroke-linejoin:miter;stroke-miterlimit:4;"/><path id="CCL-DBG" serif:id="CCL DBG" d="M160,187.793c0.999,-1.519 2.037,-3.537 2.485,-4.417" style="fill:none;stroke:#fa9e0d;stroke-width:2px;stroke-linejoin:miter;stroke-miterlimit:4;"/><path id="NEL" d="M179.572,76.948l-4.019,6.514" style="fill:none;stroke:#9900ab;stroke-width:2px;stroke-linejoin:miter;stroke-miterlimit:4;"/><path id="NEL1" serif:id="NEL" d="M175.553,83.462c0,-0 -7.171,11.624 -15.553,25.211" style="fill:none;stroke:#9900ab;stroke-width:2px;stroke-linejoin:miter;stroke-miterlimit:4;"/><path id="CGL" d="M196.986,118.041l0,5.395c0,0.288 0.102,0.514 0.283,0.627c0.18,0.114 0.426,0.107 0.682,-0.02c3.275,-1.625 13.77,-6.83 13.77,-6.83" style="fill:none;stroke:#009645;stroke-width:2px;stroke-linejoin:miter;stroke-miterlimit:4;"/><path id="CGL-Grey" d="M196.986,118.041l0,5.395c0,0.288 0.102,0.514 0.283,0.627c0.18,0.114 0.426,0.107 0.682,-0.02c3.275,-1.625 13.77,-6.83 13.77,-6.83" style="fill:none;stroke:#ddd;stroke-width:1px;stroke-linejoin:miter;stroke-miterlimit:4;"/><path id="EWL1" serif:id="EWL" d="M159.992,158.417c8.378,-13.58 16.795,-27.224 19.015,-30.823c0.362,-0.587 0.852,-1.059 1.364,-1.312c3.07,-1.523 14.086,-6.986 17.156,-8.509c0.511,-0.254 1.002,-0.725 1.364,-1.312c0.765,-1.24 2.123,-3.442 2.888,-4.682c0.362,-0.587 0.565,-1.239 0.565,-1.815l0,-13.306" style="fill:none;stroke:#009645;stroke-width:2px;stroke-linejoin:miter;stroke-miterlimit:4;"/></g><g><path id="CRL1" serif:id="CRL" d="M160,121.252c-0.41,-0.271 -0.793,-0.675 -1.089,-1.156c-1.853,-3.008 -7.733,-12.552 -9.586,-15.56c-0.362,-0.587 -0.853,-1.06 -1.364,-1.315c-5.207,-2.593 -34.105,-16.987 -34.105,-16.987" style="fill:none;stroke:#95d606;stroke-width:2px;stroke-linejoin:miter;stroke-miterlimit:4;"/><path id="TEL2" serif:id="TEL" d="M96,58.007l3.12,5.063" style="fill:none;stroke:#784008;stroke-width:2px;stroke-linejoin:miter;stroke-miterlimit:4;"/><path id="TEL3" serif:id="TEL" d="M99.12,63.07c-0,0 10.875,17.652 13.5,21.912c0.362,0.587 0.565,1.241 0.565,1.816l-0,71.81c-0,0.576 0.203,1.229 0.565,1.816c2.364,3.838 11.454,18.592 13.819,22.43c0.362,0.587 0.852,1.06 1.364,1.315c4.022,2.003 22.21,11.063 31.067,15.475" style="fill:none;stroke:#784008;stroke-width:2px;stroke-linejoin:miter;stroke-miterlimit:4;"/><path id="DTL3" serif:id="DTL" d="M160,149.32c-9.228,5.786 -18.603,11.663 -20.331,12.746c-0.181,0.114 -0.427,0.106 -0.682,-0.022c-1.97,-0.981 -10.628,-5.293 -12.597,-6.274c-0.256,-0.127 -0.501,-0.135 -0.682,-0.022c-0.818,0.513 -3.206,2.01 -4.39,2.753c-0.377,0.236 -0.377,0.923 -0.001,1.534c2.668,4.331 12.374,20.089 14.825,24.068c0.362,0.587 0.852,1.061 1.364,1.316c2.692,1.34 11.257,5.606 11.257,5.606c-0,0 1.334,0.673 2.679,0.441c2.635,-0.455 5.054,-1.384 7.201,-2.753c0.097,-0.061 0.301,-0.218 0.559,-0.425c0.353,-0.248 0.616,-0.6 0.79,-1.027" style="fill:none;stroke:#005ec4;stroke-width:2px;stroke-linejoin:miter;stroke-miterlimit:4;"/><path id="DTL4" serif:id="DTL" d="M159.992,187.261c0.336,-0.827 0.335,-1.931 -0,-3.091" style="fill:none;stroke:#005ec4;stroke-width:2px;stroke-linejoin:miter;stroke-miterlimit:4;"/><path id="DTL5" serif:id="DTL" d="M159.992,184.17c-0.188,-0.649 -0.481,-1.315 -0.878,-1.959c-8.364,-13.579 -35.035,-56.869 -39.256,-63.72c-0.362,-0.587 -0.852,-1.06 -1.364,-1.315c-3.07,-1.529 -14.344,-7.145 -22.494,-11.204" style="fill:none;stroke:#005ec4;stroke-width:2px;stroke-linejoin:miter;stroke-miterlimit:4;"/><g id="DTL-BCL-RCR" serif:id="DTL-BCL/RCR"><path d="M144.074,157.797l1.34,2.174" style="fill:none;stroke:#ddd;stroke-width:2px;stroke-linejoin:miter;stroke-miterlimit:4;"/><path d="M143.405,156.71l2.679,4.348" style="fill:none;stroke:#005ec4;stroke-width:2px;stroke-linejoin:miter;stroke-miterlimit:4;"/></g><path id="CCL2" serif:id="CCL" d="M115.269,175.546c-9.717,-10.588 -16.923,-24.583 -19.269,-38.168" style="fill:none;stroke:#fa9e0d;stroke-width:2px;stroke-linejoin:miter;stroke-miterlimit:4;"/><path id="CCL3" serif:id="CCL" d="M96,119.775c3.603,-17.275 18.67,-24.094 36.688,-15.119c10.761,5.36 20.47,15.305 27.312,26.891" style="fill:none;stroke:#fa9e0d;stroke-width:2px;stroke-linejoin:miter;stroke-miterlimit:4;"/><path id="CCL4" serif:id="CCL" d="M159.992,189.37c-3.841,2.674 -8.584,3.932 -13.908,3.574" style="fill:none;stroke:#fa9e0d;stroke-width:2px;stroke-linejoin:miter;stroke-miterlimit:4;"/><path id="CCL5" serif:id="CCL" d="M146.084,192.944c-4.161,-0.28 -8.677,-1.547 -13.396,-3.897c-6.286,-3.131 -12.213,-7.827 -17.419,-13.501" style="fill:none;stroke:#fa9e0d;stroke-width:2px;stroke-linejoin:miter;stroke-miterlimit:4;"/><path id="CCL-BBS-BCL" serif:id="CCL-BBS/BCL" d="M137.444,159.769l2.679,4.348" style="fill:none;stroke:#ddd;stroke-width:2px;stroke-linejoin:miter;stroke-miterlimit:4;"/><path id="CCL-DBG1" serif:id="CCL DBG" d="M130.679,155.646c0,-0 3.643,1.815 5.297,2.638c0.511,0.255 1.002,0.728 1.364,1.315c2.671,4.336 14.014,22.747 16.686,27.083c0.361,0.587 0.852,1.06 1.364,1.315c0.876,0.436 2.258,1.125 3.017,1.503c0.433,0.216 1.006,0.066 1.593,-0.242" style="fill:none;stroke:#fa9e0d;stroke-width:2px;stroke-linejoin:miter;stroke-miterlimit:4;"/><path id="NEL-CQY" d="M125.991,157.078l2.679,-1.68" style="fill:none;stroke:#ddd;stroke-width:2px;stroke-linejoin:miter;stroke-miterlimit:4;"/><path id="NEL2" serif:id="NEL" d="M160,110.139c-10.398,6.518 -22.659,14.205 -25.407,15.928c-0.362,0.226 -0.565,0.677 -0.565,1.253l-0,23.821c-0,0.575 -0.203,1.026 -0.565,1.253c-2.766,1.734 -14.858,9.314 -17.624,11.048c-0.361,0.227 -0.565,0.677 -0.565,1.253l0,9.65" style="fill:none;stroke:#9900ab;stroke-width:2px;stroke-linejoin:miter;stroke-miterlimit:4;"/><path id="EWL-BGS-BBS" serif:id="EWL-BGS/BBS" d="M144.744,169.433l-2.679,1.68" style="fill:none;stroke:#ddd;stroke-width:2px;stroke-linejoin:miter;stroke-miterlimit:4;"/><path id="EWL-TPG" d="M120.633,173.246c-0,0 0.492,0.8 0.908,1.475c0.362,0.587 0.853,1.06 1.364,1.315c3.229,1.608 15.142,7.542 15.142,7.542" style="fill:none;stroke:#ddd;stroke-width:2px;stroke-linejoin:miter;stroke-miterlimit:4;"/><path id="EWL2" serif:id="EWL" d="M96,133.265c6.532,10.602 22.354,36.283 25.541,41.456c0.362,0.587 0.853,1.06 1.364,1.315c3.001,1.495 13.593,6.77 16.856,8.396c0.256,0.127 0.501,0.135 0.682,0.022c0.181,-0.114 0.283,-0.339 0.283,-0.627l-0,-10.976c-0,-0.575 0.203,-1.026 0.565,-1.253c2.192,-1.374 10.427,-6.537 18.701,-11.724" style="fill:none;stroke:#009645;stroke-width:2px;stroke-linejoin:miter;stroke-miterlimit:4;"/><path id="NSL-DBG" d="M130.009,156.066l2.679,4.348" style="fill:none;stroke:#ddd;stroke-width:2px;stroke-linejoin:miter;stroke-miterlimit:4;"/><path id="NSL-RFP-MRB" serif:id="NSL-RFP/MRB" d="M144.744,190.531c0,-0 -3.091,-5.018 -4.391,-7.128c-0.362,-0.587 -0.565,-1.24 -0.565,-1.816l-0,-1.06" style="fill:none;stroke:#ddd;stroke-width:2px;stroke-linejoin:miter;stroke-miterlimit:4;"/><path id="NSL1" serif:id="NSL" d="M154.121,205.75c-0,0 -11.113,-18.037 -13.768,-22.347c-0.362,-0.587 -0.565,-1.24 -0.565,-1.816l-0,-8.751c-0,-0.576 -0.203,-1.229 -0.565,-1.816c-3.4,-5.519 -21.118,-34.276 -24.823,-40.29c-0.375,-0.609 -0.377,-1.295 -0.002,-1.532c2.446,-1.553 10.796,-6.854 13.042,-8.28c0.359,-0.228 0.56,-0.677 0.56,-1.25l0,-47.909c0,-0.599 -0.432,-1.3 -0.964,-1.565c-3.803,-1.894 -18.175,-9.053 -31.036,-15.459" style="fill:none;stroke:#d42e12;stroke-width:2px;stroke-linejoin:miter;stroke-miterlimit:4;"/></g></g><g id="outline"><path d="M32,64l64,-32l-0,160l-64,32l-0,-160Z" style="fill:none;stroke:#000;stroke-width:4px;"/><path d="M160,64l0,160l-64,-32l0,-160l64,32Z" style="fill:none;stroke:#000;stroke-width:4px;"/><path d="M224,32l0,160l-64,32l0,-160l64,-32Z" style="fill:none;stroke:#000;stroke-width:4px;"/></g></svg>