<?xml version="1.0" encoding="UTF-8" standalone="no"?><!DOCTYPE svg PUBLIC "-//W3C//DTD SVG 1.1//EN" "http://www.w3.org/Graphics/SVG/1.1/DTD/svg11.dtd"><svg width="100%" height="100%" viewBox="0 0 256 256" version="1.1" xmlns="http://www.w3.org/2000/svg" xmlns:xlink="http://www.w3.org/1999/xlink" xml:space="preserve" xmlns:serif="http://www.serif.com/" style="fill-rule:evenodd;clip-rule:evenodd;stroke-linejoin:round;stroke-miterlimit:1.41421;"><path d="M179.026,151.981l-102.001,-0c-18.02,-0 -18.02,-17.026 -18.02,-22.708c-0,-18.03 3.49,-37.237 8.999,-53.775c4.505,-13.515 12.004,-30.003 59.986,-30.003c48.002,-0 55.521,16.488 59.985,30.003c5.53,16.538 9.041,35.745 9.041,53.775c-0,5.682 -0,22.708 -17.99,22.708Zm-18.03,21.003c0,-4.972 4.048,-9 8.99,-9c4.971,0 9.04,4.028 9.04,9c0,4.982 -4.069,9 -9.04,9c-4.942,-0 -8.99,-4.018 -8.99,-9Zm-75.002,9c-4.992,-0 -8.969,-4.018 -8.969,-9c-0,-4.972 3.977,-9 8.969,-9c5.002,0 8.99,4.028 8.99,9c-0,4.982 -3.988,9 -8.99,9Zm129.001,-35.614c0,-36.354 -13.819,-86.224 -27.02,-99.374c-14.286,-14.316 -44.968,-14.996 -59.985,-14.996c-14.966,0 -45.699,0.68 -59.986,14.996c-13.159,13.15 -26.999,63.02 -26.999,99.374c-0,17.614 -0.02,47.617 18,47.617l11.982,-0l-14.965,30.013l29.972,0l6.017,-30.013l71.978,-0l5.997,30.013l30.003,0l-14.976,-30.013l12.003,-0c17.979,-0 17.979,-30.003 17.979,-47.617" style="fill:#fff;stroke:#000;stroke-width:4px;"/></svg>