<?xml version="1.0" encoding="UTF-8" standalone="no"?><!DOCTYPE svg PUBLIC "-//W3C//DTD SVG 1.1//EN" "http://www.w3.org/Graphics/SVG/1.1/DTD/svg11.dtd"><svg width="100%" height="100%" viewBox="0 0 256 256" version="1.1" xmlns="http://www.w3.org/2000/svg" xmlns:xlink="http://www.w3.org/1999/xlink" xml:space="preserve" xmlns:serif="http://www.serif.com/" style="fill-rule:evenodd;clip-rule:evenodd;stroke-linecap:round;stroke-linejoin:round;stroke-miterlimit:1.5;"><path d="M224,68l-192,-0l-0,120l156.662,0c0.338,-16 17.338,-28 35.338,-19l0,-101Z" style="fill:#aacff1;stroke:#000;stroke-width:3.34px;"/><g id="Original-Map" serif:id="Original Map"><path d="M109.96,170.571l23.004,0l2.162,1.817l12.539,-0l10.128,-8.262l-9.027,-7.941l-2.527,-0.025l0.036,1.323l-5.603,-0.045l-0.005,-2.43l6.972,0.013l-0.005,-2.483l1.747,-2.3l0.012,-2.332l1.349,-0.033l-0.019,2.382l6.346,0.021l0.055,1.767l-6.155,-0.032l0.006,3.114l8.49,7.589l7.918,-6.412l19.718,0l20.495,-18.679l0.277,-18.756l-3.736,-4.334l-8.562,-0.173l-2.075,3.113l-14.356,-0l-3.2,-3.373l-3.805,0.086l0.173,-3.805l-4.583,-7.869l-5.621,-0l-24.215,-18.161l-23.128,-0.738l-13.366,8.435l-4.065,-4.757l-2.076,1.47l3.892,4.67l-6.745,4.497l-17.815,0l-15.653,14.27l-0,4.151l-7.351,7.091l0.087,3.632l-3.546,2.767l-0,12.628l6.918,6.571l14.356,-0l0,-2.681l3.028,0l2.42,2.854l7.092,0l2.94,2.594l6.226,0l18.853,18.766Z" style="fill:#fff;"/><path d="M86.622,134.347l0,0.852l-2.942,-0l-0,0.296l-0.539,-0.719l0.534,-0.739l0.005,0.31l2.942,-0" style="fill:#0095da;"/><path d="M122.008,161.987c0.446,0.048 0.772,0.451 0.725,0.897c-0.048,0.447 -0.45,0.772 -0.897,0.725c-0.447,-0.047 -0.772,-0.45 -0.725,-0.897c0.047,-0.446 0.45,-0.772 0.897,-0.725" style="fill:#231f20;"/><path d="M186.912,123.393l0.852,-0l-0,2.194l0.296,0l-0.719,0.538l-0.739,-0.533l0.31,-0.005l-0,-2.194" style="fill:#07e;"/><path d="M136.429,153.07l0.852,0l-0,3.907l0.296,-0l-0.719,0.538l-0.739,-0.533l0.31,-0.005l0,-3.907" style="fill:#07e;"/><path d="M186.912,128.356l0.852,-0l-0,2.878l0.296,-0l-0.719,0.538l-0.739,-0.533l0.31,-0.005l-0,-2.878" style="fill:#07e;"/><path d="M186.912,134.553l0.852,-0l-0,4.346l0.296,-0l-0.719,0.538l-0.739,-0.533l0.31,-0.005l-0,-4.346" style="fill:#07e;"/><path d="M180.879,143.376l-0,0.852l-5.498,0l0,0.296l-0.538,-0.718l0.534,-0.739l0.004,0.309l5.498,0" style="fill:#07e;"/><path d="M159.06,143.376l0,0.852l-3.343,0l-0,0.296l-0.539,-0.718l0.534,-0.739l0.005,0.309l3.343,0" style="fill:#07e;"/><path d="M152.725,143.376l-0,0.852l-3.344,0l0,0.296l-0.538,-0.718l0.533,-0.739l0.005,0.309l3.344,0" style="fill:#07e;"/><path d="M165.438,143.376l0,0.852l-3.343,0l-0,0.296l-0.538,-0.718l0.533,-0.739l0.005,0.309l3.343,0" style="fill:#07e;"/><path d="M172.094,143.376l-0,0.852l-3.344,0l0,0.296l-0.538,-0.718l0.533,-0.739l0.005,0.309l3.344,0" style="fill:#07e;"/><path d="M86.622,134.347l0,0.852l-2.942,-0l-0,0.296l-0.539,-0.719l0.534,-0.739l0.005,0.31l2.942,-0" style="fill:#07e;"/><path d="M80.202,134.347l0,0.852l-2.942,-0l-0,0.296l-0.539,-0.719l0.534,-0.739l0.005,0.31l2.942,-0" style="fill:#07e;"/><path d="M73.822,134.347l0,0.852l-2.942,-0l0,0.296l-0.538,-0.719l0.533,-0.739l0.005,0.31l2.942,-0" style="fill:#07e;"/><path d="M127.361,163.162l-0,0.852l-3.616,-0l-0,0.296l-0.539,-0.719l0.534,-0.739l0.005,0.31l3.616,-0" style="fill:#07e;"/><path d="M94.06,139.238l-0.562,0.64l-4.324,-3.862l-0.196,0.223l0.07,-0.895l0.889,-0.203l-0.201,0.235l4.324,3.862" style="fill:#07e;"/><path d="M98.532,143.062l-0.562,0.64l-2.325,-2.041l-0.195,0.222l0.07,-0.895l0.888,-0.203l-0.201,0.236l2.325,2.041" style="fill:#07e;"/><path d="M103.055,147.003l-0.562,0.64l-2.324,-2.042l-0.196,0.223l0.07,-0.895l0.889,-0.204l-0.201,0.236l2.324,2.042" style="fill:#07e;"/><path d="M107.349,150.781l-0.562,0.64l-2.324,-2.042l-0.195,0.223l0.069,-0.896l0.889,-0.203l-0.201,0.236l2.324,2.042" style="fill:#07e;"/><path d="M111.857,154.727l-0.562,0.64l-2.126,-1.843l-0.195,0.223l0.07,-0.896l0.888,-0.202l-0.2,0.235l2.125,1.843" style="fill:#07e;"/><path d="M116.339,158.674l-0.562,0.64l-2.324,-2.042l-0.196,0.223l0.07,-0.896l0.888,-0.203l-0.2,0.236l2.324,2.042" style="fill:#07e;"/><path d="M120.371,162.303l-0.562,0.64l-2.324,-2.042l-0.196,0.223l0.07,-0.896l0.889,-0.203l-0.201,0.236l2.324,2.042" style="fill:#07e;"/><path d="M185.964,141.475l0.457,0.719l-1.8,1.146l0.159,0.25l-0.84,-0.317l0.053,-0.909l0.171,0.258l1.8,-1.147" style="fill:#07e;"/><path d="M146.614,144.047l0.559,0.643l-1.224,1.065l0.195,0.223l-0.878,-0.188l-0.083,-0.908l0.207,0.23l1.224,-1.065" style="fill:#07e;"/><path d="M143.325,146.921l0.56,0.643l-1.224,1.065l0.194,0.224l-0.878,-0.189l-0.083,-0.908l0.207,0.231l1.224,-1.066" style="fill:#07e;"/><path d="M140.036,149.796l0.56,0.642l-1.971,1.738l0.194,0.223l-0.878,-0.189l-0.083,-0.907l0.208,0.23l1.97,-1.737" style="fill:#07e;"/><path d="M132.353,159.313l0.597,0.606l-2.524,2.51l0.208,0.211l-0.888,-0.134l-0.139,-0.901l0.221,0.217l2.525,-2.51" style="fill:#07e;"/><path d="M133.482,153.041l0.852,0l-0,3.936l0.296,-0l-0.719,0.538l-0.739,-0.533l0.31,-0.005l-0,-3.936" style="fill:#f00;"/><path d="M87.274,119.78l0.852,0l0,-3.264l0.296,-0l-0.718,-0.539l-0.739,0.534l0.309,0.005l0,3.264" style="fill:#b50;"/><path d="M137.104,100.422l-0.852,0l0,1.135l-0.296,0l0.719,0.538l0.739,-0.533l-0.31,-0.005l0,-1.135" style="fill:#f00;"/><path d="M137.104,104.391l-0.852,-0l0,3.823l-0.296,0l0.719,0.539l0.739,-0.534l-0.31,-0.005l0,-3.823" style="fill:#f00;"/><path d="M137.104,111.106l-0.852,0l0,1.135l-0.296,-0l0.719,0.538l0.739,-0.533l-0.31,-0.005l0,-1.135" style="fill:#f00;"/><path d="M137.104,115.038l-0.852,-0l0,2.971l-0.296,-0l0.719,0.538l0.739,-0.533l-0.31,-0.005l0,-2.971" style="fill:#f00;"/><path d="M137.104,121.064l-0.852,0l0,1.135l-0.296,0l0.719,0.539l0.739,-0.534l-0.31,-0.005l0,-1.135" style="fill:#f00;"/><path d="M137.104,125.106l-0.852,0l0,1.135l-0.296,0l0.719,0.539l0.739,-0.534l-0.31,-0.005l0,-1.135" style="fill:#f00;"/><path d="M135.315,129.208l-0.558,-0.644l-2.406,2.096l-0.195,-0.224l0.065,0.895l0.887,0.209l-0.199,-0.237l2.406,-2.095" style="fill:#f00;"/><path d="M130.708,133.196l-0.558,-0.643l-2.561,2.251l-0.195,-0.224l0.065,0.896l0.887,0.208l-0.199,-0.237l2.561,-2.251" style="fill:#f00;"/><path d="M87.274,132.103l0.852,0l0,-3.264l0.296,-0l-0.718,-0.538l-0.739,0.533l0.309,0.005l0,3.264" style="fill:#b50;"/><path d="M126.337,137.034l-0.558,-0.643l-2.155,1.862l-0.193,-0.224l0.064,0.896l0.887,0.208l-0.199,-0.237l2.154,-1.862" style="fill:#f00;"/><path d="M126.734,143.1l-0.616,0.588l1.963,2.063l-0.215,0.204l0.892,-0.106l0.166,-0.896l-0.227,0.21l-1.963,-2.063" style="fill:#f00;"/><path d="M123.297,139.511l-0.616,0.588l1.507,1.583l-0.214,0.204l0.892,-0.107l0.166,-0.896l-0.228,0.211l-1.507,-1.583" style="fill:#f00;"/><path d="M130.891,147.53l-0.617,0.588l2.337,2.467l-0.214,0.205l0.892,-0.107l0.166,-0.897l-0.228,0.211l-2.336,-2.467" style="fill:#f00;"/><path d="M87.274,125.668l0.852,-0l0,-3.265l0.296,0l-0.718,-0.538l-0.739,0.534l0.309,0.004l0,3.264" style="fill:#b50;"/><path d="M137.449,158.937l0.607,-0.598l2.365,2.38l0.211,-0.208l-0.134,0.888l-0.901,0.139l0.217,-0.221l-2.365,-2.38" style="fill:#f00;"/><path d="M83.142,133.78l-0,-0.852l2.942,0l-0,-0.296l0.538,0.719l-0.533,0.739l-0.005,-0.31l-2.942,0" style="fill:#0e0;"/><path d="M76.722,133.78l-0,-0.852l2.942,0l0,-0.296l0.538,0.719l-0.533,0.739l-0.005,-0.31l-2.942,0" style="fill:#0e0;"/><path d="M70.342,133.78l-0,-0.852l2.942,0l0,-0.296l0.539,0.719l-0.534,0.739l-0.005,-0.31l-2.942,0" style="fill:#0e0;"/><path d="M90.046,134.756l0.562,-0.64l4.324,3.862l0.196,-0.222l-0.07,0.895l-0.888,0.203l0.2,-0.236l-4.324,-3.862" style="fill:#0e0;"/><path d="M96.55,140.44l0.562,-0.64l2.324,2.041l0.196,-0.222l-0.07,0.895l-0.888,0.203l0.2,-0.236l-2.324,-2.041" style="fill:#0e0;"/><path d="M101.041,144.342l0.562,-0.64l2.324,2.042l0.195,-0.223l-0.069,0.895l-0.889,0.203l0.201,-0.235l-2.324,-2.042" style="fill:#0e0;"/><path d="M105.335,148.12l0.562,-0.64l2.324,2.041l0.196,-0.222l-0.07,0.895l-0.888,0.203l0.2,-0.236l-2.324,-2.041" style="fill:#0e0;"/><path d="M110.041,152.265l0.562,-0.641l2.126,1.843l0.195,-0.222l-0.07,0.895l-0.888,0.203l0.201,-0.236l-2.126,-1.842" style="fill:#0e0;"/><path d="M114.324,156.013l0.562,-0.64l2.325,2.042l0.195,-0.223l-0.07,0.895l-0.889,0.204l0.201,-0.236l-2.324,-2.042" style="fill:#0e0;"/><path d="M118.356,159.642l0.562,-0.64l2.325,2.042l0.195,-0.223l-0.07,0.895l-0.888,0.204l0.201,-0.236l-2.325,-2.042" style="fill:#0e0;"/><path d="M185.553,126.125l0.851,0l0,-2.194l0.296,-0l-0.719,-0.538l-0.738,0.533l0.31,0.005l-0,2.194" style="fill:#0e0;"/><path d="M134.942,157.515l0.851,0l0,-3.993l0.296,0l-0.718,-0.538l-0.739,0.534l0.31,0.004l-0,3.993" style="fill:#0e0;"/><path d="M185.553,131.731l0.851,0l0,-2.899l0.296,0l-0.719,-0.538l-0.738,0.533l0.31,0.005l-0,2.899" style="fill:#0e0;"/><path d="M185.553,138.896l0.851,-0l0,-4.367l0.296,-0l-0.719,-0.539l-0.738,0.534l0.31,0.005l-0,4.367" style="fill:#0e0;"/><path d="M174.856,142.017l0,0.852l5.443,-0l-0,0.296l0.538,-0.719l-0.533,-0.739l-0.005,0.31l-5.443,-0" style="fill:#0e0;"/><path d="M168.212,142.017l-0,0.852l3.264,-0l0,0.296l0.539,-0.719l-0.534,-0.739l-0.005,0.31l-3.264,-0" style="fill:#0e0;"/><path d="M161.636,142.017l-0,0.852l3.264,-0l-0,0.296l0.538,-0.719l-0.533,-0.739l-0.005,0.31l-3.264,-0" style="fill:#0e0;"/><path d="M155.216,142.017l0,0.852l3.265,-0l-0,0.296l0.538,-0.719l-0.534,-0.739l-0.004,0.31l-3.265,-0" style="fill:#0e0;"/><path d="M148.881,142.017l-0,0.852l3.264,-0l0,0.296l0.539,-0.719l-0.534,-0.739l-0.005,0.31l-3.264,-0" style="fill:#0e0;"/><path d="M123.465,161.802l0,0.852l3.316,0l-0,0.296l0.538,-0.719l-0.533,-0.738l-0.005,0.309l-3.316,0" style="fill:#0e0;"/><path d="M182.953,141.782l0.457,0.718l1.879,-1.197l0.159,0.25l0.068,-0.896l-0.847,-0.336l0.162,0.264l-1.878,1.197" style="fill:#0e0;"/><path d="M144.102,144.431l0.559,0.643l1.182,-1.029l0.195,0.223l-0.066,-0.895l-0.888,-0.207l0.2,0.237l-1.182,1.028" style="fill:#0e0;"/><path d="M140.813,147.306l0.559,0.642l1.183,-1.029l0.194,0.224l-0.066,-0.896l-0.887,-0.207l0.199,0.237l-1.182,1.029" style="fill:#0e0;"/><path d="M136.882,150.702l0.559,0.642l1.825,-1.551l0.194,0.224l-0.066,-0.896l-0.887,-0.207l0.2,0.237l-1.825,1.551" style="fill:#0e0;"/><path d="M128.431,161.29l0.598,0.607l2.712,-2.67l0.207,0.211l-0.121,-0.89l-0.898,-0.152l0.214,0.224l-2.712,2.67" style="fill:#0e0;"/><path d="M132.006,157.515l0.852,0l-0,-4.021l0.296,-0l-0.719,-0.539l-0.739,0.534l0.31,0.005l-0,4.021" style="fill:#fd0;"/><path d="M89.947,116.1l-0.852,-0l0,3.264l-0.296,-0l0.719,0.538l0.739,-0.533l-0.31,-0.005l0,-3.264" style="fill:#fb5;"/><path d="M134.661,102.047l0.851,-0l0,-1.135l0.296,-0l-0.718,-0.539l-0.739,0.534l0.31,0.005l-0,1.135" style="fill:#fd0;"/><path d="M134.661,108.704l0.851,-0l0,-3.824l0.296,0l-0.718,-0.538l-0.739,0.533l0.31,0.005l-0,3.824" style="fill:#fd0;"/><path d="M134.661,112.731l0.851,-0l0,-1.135l0.296,-0l-0.718,-0.539l-0.739,0.534l0.31,0.005l-0,1.135" style="fill:#fd0;"/><path d="M134.661,118.498l0.851,0l0,-2.971l0.296,0.001l-0.718,-0.539l-0.739,0.534l0.31,0.004l-0,2.971" style="fill:#fd0;"/><path d="M134.661,122.689l0.851,-0l0,-1.135l0.296,-0l-0.718,-0.538l-0.739,0.533l0.31,0.005l-0,1.135" style="fill:#fd0;"/><path d="M131.122,129.773l0.558,0.643l2.407,-2.095l0.194,0.224l-0.065,-0.896l-0.887,-0.208l0.199,0.237l-2.406,2.095" style="fill:#fd0;"/><path d="M126.361,133.916l0.558,0.644l2.562,-2.251l0.194,0.224l-0.065,-0.896l-0.887,-0.208l0.199,0.237l-2.561,2.25" style="fill:#fd0;"/><path d="M89.947,128.301l-0.852,-0l0,3.264l-0.296,-0l0.719,0.538l0.739,-0.533l-0.31,-0.005l0,-3.264" style="fill:#fb5;"/><path d="M127.273,147.004l0.616,-0.588l-1.962,-2.063l0.214,-0.205l-0.892,0.107l-0.166,0.896l0.228,-0.21l1.962,2.063" style="fill:#fd0;"/><path d="M123.381,142.935l0.616,-0.588l-1.508,-1.583l0.215,-0.205l-0.892,0.107l-0.166,0.896l0.227,-0.21l1.508,1.583" style="fill:#fd0;"/><path d="M131.659,151.723l0.616,-0.588l-2.251,-2.38l0.215,-0.205l-0.892,0.107l-0.166,0.896l0.227,-0.21l2.251,2.38" style="fill:#fd0;"/><path d="M122.396,137.366l0.559,0.644l2.154,-1.862l0.194,0.223l-0.065,-0.895l-0.887,-0.209l0.2,0.237l-2.155,1.862" style="fill:#fd0;"/><path d="M134.661,126.731l0.851,-0l0,-1.135l0.296,0l-0.718,-0.538l-0.739,0.533l0.31,0.005l-0,1.135" style="fill:#fd0;"/><path d="M89.947,121.988l-0.852,-0l0,3.263l-0.296,0l0.719,0.539l0.739,-0.534l-0.31,-0.005l0,-3.263" style="fill:#fb5;"/><path d="M139.168,162.577l0.607,-0.598l-2.353,-2.395l0.211,-0.208l-0.89,0.121l-0.152,0.899l0.224,-0.214l2.353,2.395" style="fill:#fd0;"/><path d="M129.222,146.44c0.444,0.066 0.753,0.481 0.687,0.926c-0.066,0.444 -0.482,0.753 -0.926,0.687c-0.444,-0.066 -0.753,-0.482 -0.687,-0.926c0.066,-0.445 0.482,-0.753 0.926,-0.687" style="fill:#231f20;"/><path d="M112.4,155.893c-0.305,-0.329 -0.286,-0.846 0.043,-1.152c0.329,-0.306 0.846,-0.287 1.152,0.042c0.306,0.329 0.287,0.847 -0.042,1.152c-0.329,0.306 -0.847,0.287 -1.153,-0.042" style="fill:#231f20;"/><path d="M116.769,159.825c-0.306,-0.329 -0.287,-0.847 0.042,-1.153c0.329,-0.305 0.846,-0.286 1.152,0.043c0.306,0.329 0.287,0.846 -0.042,1.152c-0.329,0.305 -0.847,0.287 -1.152,-0.042" style="fill:#231f20;"/><path d="M108.006,151.989c-0.306,-0.329 -0.287,-0.846 0.042,-1.152c0.329,-0.306 0.846,-0.287 1.152,0.042c0.306,0.329 0.287,0.847 -0.042,1.152c-0.329,0.306 -0.847,0.287 -1.152,-0.042" style="fill:#231f20;"/><path d="M103.529,148.085c-0.306,-0.329 -0.287,-0.847 0.042,-1.152c0.329,-0.306 0.847,-0.287 1.152,0.042c0.306,0.329 0.287,0.846 -0.042,1.152c-0.329,0.306 -0.846,0.287 -1.152,-0.042" style="fill:#231f20;"/><path d="M99.134,144.283c-0.305,-0.329 -0.286,-0.847 0.043,-1.152c0.329,-0.306 0.846,-0.287 1.152,0.042c0.305,0.329 0.287,0.847 -0.042,1.152c-0.329,0.306 -0.847,0.287 -1.153,-0.042" style="fill:#231f20;"/><path d="M94.663,140.322c-0.306,-0.329 -0.287,-0.846 0.042,-1.152c0.329,-0.306 0.846,-0.287 1.152,0.042c0.306,0.329 0.287,0.847 -0.042,1.152c-0.329,0.306 -0.847,0.287 -1.152,-0.042" style="fill:#231f20;"/><path d="M87.853,127.624c-0.306,-0.329 -0.287,-0.847 0.042,-1.153c0.329,-0.305 0.846,-0.286 1.152,0.043c0.306,0.329 0.287,0.846 -0.042,1.152c-0.329,0.306 -0.847,0.287 -1.152,-0.042" style="fill:#231f20;"/><path d="M87.853,121.387c-0.306,-0.329 -0.287,-0.847 0.042,-1.153c0.329,-0.305 0.846,-0.286 1.152,0.043c0.306,0.329 0.287,0.846 -0.042,1.152c-0.329,0.306 -0.847,0.287 -1.152,-0.042" style="fill:#231f20;"/><path d="M87.853,115.578c-0.306,-0.329 -0.287,-0.847 0.042,-1.153c0.329,-0.305 0.846,-0.286 1.152,0.043c0.306,0.329 0.287,0.846 -0.042,1.152c-0.329,0.306 -0.847,0.287 -1.152,-0.042" style="fill:#231f20;"/><path d="M135.286,99.792c-0.306,-0.329 -0.287,-0.846 0.042,-1.152c0.329,-0.306 0.847,-0.287 1.153,0.042c0.305,0.329 0.286,0.847 -0.043,1.153c-0.329,0.305 -0.846,0.286 -1.152,-0.043" style="fill:#231f20;"/><path d="M135.286,103.802c-0.306,-0.329 -0.287,-0.846 0.042,-1.152c0.329,-0.306 0.847,-0.287 1.153,0.042c0.305,0.329 0.286,0.847 -0.043,1.152c-0.329,0.306 -0.846,0.287 -1.152,-0.042" style="fill:#231f20;"/><path d="M135.286,110.491c-0.306,-0.329 -0.287,-0.847 0.042,-1.153c0.329,-0.305 0.847,-0.286 1.153,0.043c0.305,0.329 0.286,0.846 -0.043,1.152c-0.329,0.306 -0.846,0.287 -1.152,-0.042" style="fill:#231f20;"/><path d="M135.286,114.359c-0.306,-0.329 -0.287,-0.846 0.042,-1.152c0.329,-0.306 0.847,-0.287 1.153,0.042c0.305,0.329 0.286,0.847 -0.043,1.153c-0.329,0.305 -0.846,0.286 -1.152,-0.043" style="fill:#231f20;"/><path d="M135.286,120.195c-0.306,-0.329 -0.287,-0.846 0.042,-1.152c0.329,-0.305 0.847,-0.287 1.153,0.042c0.305,0.329 0.286,0.847 -0.043,1.153c-0.329,0.305 -0.846,0.286 -1.152,-0.043" style="fill:#231f20;"/><path d="M135.286,124.523c-0.306,-0.329 -0.287,-0.846 0.042,-1.152c0.329,-0.306 0.847,-0.287 1.153,0.042c0.305,0.329 0.286,0.847 -0.043,1.153c-0.329,0.305 -0.846,0.286 -1.152,-0.043" style="fill:#231f20;"/><path d="M135.016,128.3c-0.305,-0.329 -0.286,-0.847 0.042,-1.152c0.329,-0.306 0.847,-0.287 1.153,0.042c0.306,0.329 0.287,0.846 -0.043,1.152c-0.328,0.306 -0.846,0.287 -1.152,-0.042" style="fill:#231f20;"/><path d="M130.161,132.076c-0.306,-0.329 -0.287,-0.846 0.042,-1.152c0.329,-0.306 0.846,-0.287 1.152,0.042c0.306,0.329 0.287,0.847 -0.042,1.153c-0.329,0.305 -0.846,0.286 -1.152,-0.043" style="fill:#231f20;"/><path d="M125.755,135.943c-0.306,-0.329 -0.287,-0.847 0.042,-1.153c0.329,-0.305 0.847,-0.286 1.152,0.043c0.306,0.329 0.287,0.846 -0.042,1.152c-0.329,0.305 -0.846,0.287 -1.152,-0.042" style="fill:#231f20;"/><path d="M121.214,139.944c-0.305,-0.329 -0.286,-0.847 0.043,-1.152c0.329,-0.306 0.846,-0.287 1.152,0.042c0.305,0.329 0.287,0.846 -0.042,1.152c-0.33,0.306 -0.847,0.287 -1.153,-0.042" style="fill:#231f20;"/><path d="M124.586,143.54c-0.305,-0.329 -0.287,-0.846 0.042,-1.152c0.329,-0.306 0.847,-0.286 1.153,0.042c0.305,0.329 0.286,0.847 -0.043,1.153c-0.329,0.305 -0.846,0.286 -1.152,-0.043" style="fill:#231f20;"/><path d="M68.582,134.584c-0.306,-0.329 -0.287,-0.846 0.042,-1.152c0.329,-0.306 0.847,-0.287 1.152,0.042c0.306,0.329 0.287,0.847 -0.042,1.153c-0.329,0.305 -0.847,0.286 -1.152,-0.043" style="fill:#231f20;"/><path d="M74.801,134.584c-0.306,-0.329 -0.287,-0.846 0.042,-1.152c0.329,-0.306 0.847,-0.287 1.152,0.042c0.306,0.329 0.287,0.847 -0.042,1.153c-0.329,0.305 -0.846,0.286 -1.152,-0.043" style="fill:#231f20;"/><path d="M81.141,134.584c-0.306,-0.329 -0.287,-0.846 0.042,-1.152c0.329,-0.306 0.846,-0.287 1.152,0.042c0.306,0.329 0.287,0.847 -0.042,1.153c-0.329,0.305 -0.847,0.286 -1.152,-0.043" style="fill:#231f20;"/><path d="M87.598,134.695c-0.437,-0.471 -0.41,-1.212 0.061,-1.649c0.47,-0.437 1.211,-0.41 1.648,0.06c0.438,0.471 0.411,1.212 -0.06,1.649c-0.471,0.437 -1.211,0.41 -1.649,-0.06" style="fill:#231f20;"/><path d="M136.905,151.364c0.284,0.349 0.23,0.864 -0.118,1.147c-0.349,0.283 -0.864,0.23 -1.147,-0.118c-0.283,-0.349 -0.23,-0.864 0.118,-1.147c0.349,-0.283 0.864,-0.23 1.147,0.118" style="fill:#231f20;"/><path d="M133.812,151.364c0.283,0.349 0.23,0.864 -0.119,1.147c-0.348,0.283 -0.864,0.23 -1.147,-0.118c-0.283,-0.349 -0.23,-0.864 0.119,-1.147c0.348,-0.283 0.863,-0.23 1.147,0.118" style="fill:#231f20;"/><rect x="132.978" y="151.375" width="3.564" height="1.032" style="fill:#231f20;"/><path d="M136.905,157.936c0.284,0.348 0.23,0.863 -0.118,1.147c-0.349,0.283 -0.864,0.23 -1.147,-0.119c-0.283,-0.349 -0.23,-0.864 0.118,-1.147c0.349,-0.283 0.864,-0.23 1.147,0.119" style="fill:#231f20;"/><path d="M133.812,157.936c0.283,0.348 0.23,0.863 -0.119,1.147c-0.348,0.283 -0.864,0.23 -1.147,-0.119c-0.283,-0.349 -0.23,-0.864 0.119,-1.147c0.348,-0.283 0.863,-0.23 1.147,0.119" style="fill:#231f20;"/><rect x="132.978" y="157.946" width="3.564" height="1.032" style="fill:#231f20;"/><path d="M140.473,162.243c-0.307,0.328 -0.289,0.845 0.039,1.152c0.328,0.306 0.846,0.289 1.152,-0.039c0.307,-0.328 0.289,-0.846 -0.039,-1.153c-0.328,-0.306 -0.846,-0.289 -1.152,0.04" style="fill:#231f20;"/><path d="M128.929,162.158c0.307,0.328 0.289,0.846 -0.039,1.152c-0.328,0.307 -0.846,0.29 -1.152,-0.039c-0.307,-0.328 -0.289,-0.845 0.039,-1.152c0.328,-0.307 0.846,-0.289 1.152,0.039" style="fill:#231f20;"/><path d="M186.658,121.526c0.449,-0 0.815,0.366 0.815,0.815c-0,0.449 -0.366,0.815 -0.815,0.815c-0.449,0 -0.816,-0.366 -0.816,-0.815c0,-0.449 0.367,-0.815 0.816,-0.815" style="fill:#231f20;"/><path d="M186.658,126.467c0.449,-0 0.815,0.366 0.815,0.815c-0,0.449 -0.366,0.816 -0.815,0.816c-0.449,-0 -0.816,-0.367 -0.816,-0.816c0,-0.449 0.367,-0.815 0.816,-0.815" style="fill:#231f20;"/><path d="M186.658,132.055c0.449,0 0.815,0.366 0.815,0.815c-0,0.449 -0.366,0.816 -0.815,0.816c-0.449,-0 -0.816,-0.367 -0.816,-0.816c0,-0.449 0.367,-0.815 0.816,-0.815" style="fill:#231f20;"/><path d="M186.69,139.557c0.449,0 0.815,0.366 0.815,0.815c0,0.45 -0.366,0.816 -0.815,0.816c-0.449,-0 -0.815,-0.366 -0.815,-0.816c-0,-0.449 0.366,-0.815 0.815,-0.815" style="fill:#231f20;"/><path d="M182.954,143.122c0,0.449 -0.366,0.815 -0.815,0.815c-0.449,0 -0.815,-0.366 -0.815,-0.815c-0,-0.449 0.366,-0.815 0.815,-0.815c0.449,-0 0.815,0.366 0.815,0.815" style="fill:#231f20;"/><path d="M174.29,143.122c-0,0.449 -0.366,0.815 -0.815,0.815c-0.45,0 -0.816,-0.366 -0.816,-0.815c0,-0.449 0.366,-0.815 0.816,-0.815c0.449,-0 0.815,0.366 0.815,0.815" style="fill:#231f20;"/><path d="M167.712,143.122c-0,0.449 -0.367,0.815 -0.816,0.815c-0.449,0 -0.815,-0.366 -0.815,-0.815c0,-0.449 0.366,-0.815 0.815,-0.815c0.449,-0 0.816,0.366 0.816,0.815" style="fill:#231f20;"/><path d="M154.794,143.122c0,0.449 -0.366,0.815 -0.815,0.815c-0.449,0 -0.815,-0.366 -0.815,-0.815c-0,-0.449 0.366,-0.815 0.815,-0.815c0.449,-0 0.815,0.366 0.815,0.815" style="fill:#231f20;"/><path d="M144.582,145.49c0.295,0.339 0.26,0.855 -0.079,1.15c-0.339,0.295 -0.856,0.259 -1.15,-0.079c-0.295,-0.339 -0.26,-0.856 0.079,-1.151c0.339,-0.295 0.855,-0.259 1.15,0.08" style="fill:#231f20;"/><path d="M141.293,148.364c0.295,0.339 0.26,0.855 -0.079,1.15c-0.338,0.295 -0.855,0.26 -1.15,-0.079c-0.295,-0.339 -0.26,-0.856 0.079,-1.15c0.339,-0.295 0.856,-0.26 1.15,0.079" style="fill:#231f20;"/><path d="M148.001,142.655c0.307,0.328 0.289,0.846 -0.039,1.152c-0.328,0.307 -0.846,0.289 -1.152,-0.039c-0.307,-0.328 -0.289,-0.846 0.039,-1.152c0.328,-0.307 0.845,-0.289 1.152,0.039" style="fill:#231f20;"/><path d="M161.136,143.122c-0,0.449 -0.367,0.815 -0.816,0.815c-0.449,0 -0.815,-0.366 -0.815,-0.815c0,-0.449 0.366,-0.815 0.815,-0.815c0.449,-0 0.816,0.366 0.816,0.815" style="fill:#231f20;"/></g><path id="Memories" d="M210.982,163.001c13.724,0 24.89,11.215 24.89,24.999c-0,13.782 -11.166,24.999 -24.89,24.999c-5.693,-0 -11.26,-1.983 -15.674,-5.58c-1.136,-0.93 -1.311,-2.614 -0.388,-3.755c0.922,-1.137 2.599,-1.317 3.739,-0.387c3.516,2.869 7.778,4.385 12.323,4.385c10.794,-0 19.574,-8.82 19.574,-19.662c0,-10.84 -8.78,-19.66 -19.574,-19.66c-10.061,0 -18.505,7.827 -19.48,17.731l-0.044,-0.002l-0.109,0.596l2.612,-1.51c1.089,-0.624 2.469,-0.249 3.093,0.836c0.625,1.089 0.252,2.482 -0.832,3.108l-8.876,5.134l-6.922,-8.061c-0.817,-0.951 -0.711,-2.388 0.236,-3.21c0.952,-0.82 2.384,-0.714 3.198,0.238l2.253,2.623l0.272,-1.498l0.002,-0c1.77,-12.152 12.075,-21.324 24.597,-21.324Zm-3.557,34.099c-0.221,0.123 -0.463,0.189 -0.704,0.189c-0.248,0 -0.494,-0.066 -0.718,-0.197c-0.441,-0.26 -0.708,-0.723 -0.708,-1.239l0,-15.696c0,-0.517 0.269,-0.98 0.712,-1.239c0.45,-0.261 0.981,-0.259 1.424,-0.002l13.674,7.905c0.449,0.261 0.717,0.726 0.715,1.249c-0.002,0.518 -0.272,0.983 -0.723,1.239l-13.672,7.791Z"/></svg>