<?xml version="1.0" encoding="UTF-8" standalone="no"?>
<!DOCTYPE svg PUBLIC "-//W3C//DTD SVG 1.1//EN" "http://www.w3.org/Graphics/SVG/1.1/DTD/svg11.dtd">
<svg width="100%" height="100%" viewBox="0 0 100 100" version="1.1" xmlns="http://www.w3.org/2000/svg" xmlns:xlink="http://www.w3.org/1999/xlink" xml:space="preserve" xmlns:serif="http://www.serif.com/" style="fill-rule:evenodd;clip-rule:evenodd;stroke-linejoin:round;stroke-miterlimit:1.41421;">
    <g transform="matrix(3.84036,0,0,3.84036,44.41,68.9929)">
        <path d="M0,5.47L2.911,5.47C3.365,5.47 3.732,5.103 3.732,4.649L3.732,0.82C3.732,0.367 3.365,0 2.911,0L0,0C-0.453,0 -0.821,0.367 -0.821,0.82L-0.821,4.649C-0.821,5.103 -0.453,5.47 0,5.47" style="fill:white;fill-rule:nonzero;"/>
    </g>
    <g transform="matrix(3.84036,0,0,3.84036,63.4021,68.9921)">
        <path d="M0,2.735L0.039,2.735C0.327,2.735 0.56,2.502 0.56,2.215L0.56,0.52C0.56,0.233 0.327,0 0.039,0L0,0C-0.287,0 -0.52,0.233 -0.52,0.52L-0.52,2.215C-0.52,2.502 -0.287,2.735 0,2.735" style="fill:white;fill-rule:nonzero;"/>
    </g>
    <g transform="matrix(3.84036,0,0,3.84036,36.5239,68.9921)">
        <path d="M0,2.735C0.298,2.735 0.54,2.493 0.54,2.195L0.54,0.54C0.54,0.242 0.298,0 0,0C-0.298,0 -0.54,0.242 -0.54,0.54L-0.54,2.195C-0.54,2.493 -0.298,2.735 0,2.735" style="fill:white;fill-rule:nonzero;"/>
    </g>
    <g transform="matrix(3.84036,0,0,3.84036,20.6017,69.3985)">
        <path d="M0,-11.951L0,1.436C0,2.629 1.293,3.516 2.621,3.516L2.94,3.225L2.94,-0.199C2.94,-0.74 3.379,-1.179 3.92,-1.179L11.377,-1.179C11.926,-1.179 12.37,-0.734 12.37,-0.186L12.37,3.225L12.69,3.516C14.018,3.516 15.31,2.629 15.31,1.436L15.31,-11.951C15.31,-14.232 13.717,-15.467 7.655,-15.467C1.594,-15.467 0,-14.232 0,-11.951M8.365,-12.678L13.355,-12.678C13.546,-12.678 13.706,-12.543 13.722,-12.368L13.722,-6.5C13.74,-6.303 13.57,-6.134 13.355,-6.134L8.365,-6.134L8.365,-12.678ZM1.589,-12.368C1.604,-12.543 1.764,-12.678 1.956,-12.678L6.945,-12.678L6.945,-6.134L1.956,-6.134C1.74,-6.134 1.571,-6.303 1.589,-6.5L1.589,-12.368Z" style="fill:white;fill-rule:nonzero;"/>
    </g>
</svg>
